<svg width="105" height="119" viewBox="0 0 105 119" fill="none" xmlns="http://www.w3.org/2000/svg">
<path d="M105 59.5106C105 52.5923 96.2892 46.0359 82.9342 41.9701C86.0161 28.4315 84.6464 17.6603 78.6109 14.2117C77.2197 13.4028 75.5931 13.0197 73.8167 13.0197V17.7667C74.8013 17.7667 75.5931 17.9583 76.2566 18.3202C79.1673 19.9805 80.4301 26.3028 79.4456 34.4345C79.2102 36.4355 78.8249 38.5429 78.354 40.6929C74.1592 39.6711 69.5791 38.8835 64.7635 38.3726C61.8742 34.4345 58.8779 30.8582 55.8602 27.729C62.8373 21.2791 69.3865 17.7454 73.8382 17.7454V12.9984C67.9525 12.9984 60.2477 17.1707 52.4572 24.4083C44.6667 17.2132 36.9619 13.0835 31.0762 13.0835V17.8305C35.5065 17.8305 42.077 21.3429 49.0542 27.7503C46.0579 30.8795 43.0616 34.4345 40.215 38.3726C35.3781 38.8835 30.798 39.6711 26.6031 40.7142C26.1109 38.5854 25.747 36.5206 25.4902 34.5409C24.4843 26.4092 25.7256 20.087 28.615 18.4053C29.257 18.0221 30.0917 17.8518 31.0762 17.8518V13.1048C29.2784 13.1048 27.6519 13.488 26.2393 14.2969C20.2252 17.7454 18.8769 28.4954 21.9802 41.9914C8.66796 46.0785 0 52.6136 0 59.5106C0 66.4289 8.71076 72.9854 22.0658 77.0512C18.9839 90.5898 20.3536 101.361 26.3891 104.81C27.7803 105.618 29.4069 106.002 31.2046 106.002C37.0903 106.002 44.7952 101.829 52.5856 94.5917C60.3761 101.787 68.0809 105.916 73.9666 105.916C75.7644 105.916 77.391 105.533 78.8035 104.724C84.8176 101.276 86.1659 90.5259 83.0626 77.0299C96.332 72.9641 105 66.4077 105 59.5106ZM77.1341 45.3122C76.3422 48.0582 75.3577 50.8894 74.2448 53.7206C73.3673 52.0176 72.447 50.3146 71.4411 48.6117C70.4566 46.9087 69.4079 45.2483 68.3592 43.6305C71.3983 44.0775 74.3304 44.631 77.1341 45.3122ZM67.3318 67.9829C65.6625 70.8566 63.9503 73.5814 62.1739 76.1146C58.9849 76.3913 55.7532 76.5403 52.5 76.5403C49.2682 76.5403 46.0365 76.3913 42.8689 76.1358C41.0925 73.6027 39.3589 70.8992 37.6896 68.0468C36.063 65.2582 34.5862 62.427 33.2379 59.5745C34.5648 56.722 36.063 53.8696 37.6682 51.081C39.3376 48.2072 41.0497 45.4825 42.8261 42.9493C46.0151 42.6726 49.2468 42.5236 52.5 42.5236C55.7318 42.5236 58.9635 42.6726 62.1311 42.928C63.9075 45.4612 65.6411 48.1646 67.3104 51.0171C68.937 53.8057 70.4138 56.6369 71.7621 59.4894C70.4138 62.3418 68.937 65.1943 67.3318 67.9829ZM74.2448 65.2156C75.4005 68.068 76.385 70.9205 77.1983 73.6878C74.3946 74.369 71.4411 74.9438 68.3806 75.3908C69.4293 73.7517 70.478 72.07 71.4625 70.3458C72.447 68.6428 73.3673 66.9185 74.2448 65.2156ZM52.5428 87.9289C50.5524 85.8853 48.562 83.6076 46.5929 81.117C48.5192 81.2022 50.4882 81.266 52.4786 81.266C54.4904 81.266 56.4808 81.2235 58.4285 81.117C56.5022 83.6076 54.5118 85.8853 52.5428 87.9289ZM36.6194 75.3908C33.5803 74.9438 30.6482 74.3903 27.8445 73.7091C28.6364 70.9631 29.6209 68.1319 30.7338 65.3007C31.6113 67.0037 32.5316 68.7067 33.5375 70.4096C34.5434 72.1126 35.5707 73.773 36.6194 75.3908ZM52.4358 31.0924C54.4262 33.136 56.4166 35.4137 58.3857 37.9043C56.4594 37.8191 54.4904 37.7553 52.5 37.7553C50.4882 37.7553 48.4978 37.7978 46.5501 37.9043C48.4764 35.4137 50.4668 33.136 52.4358 31.0924ZM36.598 43.6305C35.5493 45.2696 34.5006 46.9513 33.5161 48.6755C32.5316 50.3785 31.6113 52.0815 30.7338 53.7844C29.5781 50.9319 28.5936 48.0795 27.7803 45.3122C30.584 44.6523 33.5375 44.0775 36.598 43.6305ZM17.2289 70.2819C9.65247 67.0676 4.75132 62.8527 4.75132 59.5106C4.75132 56.1686 9.65247 51.9324 17.2289 48.7394C19.0695 47.9518 21.0813 47.2493 23.1574 46.5894C24.3773 50.7617 25.9825 55.1042 27.9729 59.5532C26.0039 63.9809 24.4201 68.3022 23.2216 72.4532C21.1027 71.7933 19.0909 71.0695 17.2289 70.2819ZM28.7434 100.701C25.8327 99.0407 24.5699 92.7185 25.5544 84.5868C25.7899 82.5858 26.1751 80.4784 26.6459 78.3284C30.8408 79.3502 35.4209 80.1378 40.2365 80.6487C43.1258 84.5868 46.1221 88.163 49.1398 91.2922C42.1627 97.7422 35.6135 101.276 31.1618 101.276C30.1987 101.255 29.3854 101.063 28.7434 100.701ZM79.5098 84.4804C80.5157 92.612 79.2744 98.9343 76.385 100.616C75.743 100.999 74.9083 101.169 73.9238 101.169C69.4935 101.169 62.923 97.6571 55.9458 91.2497C58.9421 88.1205 61.9384 84.5655 64.785 80.6274C69.6219 80.1165 74.202 79.3289 78.3969 78.2858C78.8891 80.4358 79.2744 82.5007 79.5098 84.4804ZM87.7497 70.2819C85.9091 71.0695 83.8973 71.772 81.8212 72.4319C80.6013 68.2596 78.9961 63.9171 77.0057 59.4681C78.9747 55.0404 80.5585 50.7191 81.757 46.5681C83.8759 47.228 85.8877 47.9518 87.7711 48.7394C95.3475 51.9537 100.249 56.1686 100.249 59.5106C100.227 62.8527 95.3261 67.0888 87.7497 70.2819Z" fill="#81D8F7"/>
<path d="M52.4786 69.2388C57.8804 69.2388 62.2595 64.8834 62.2595 59.5106C62.2595 54.1379 57.8804 49.7825 52.4786 49.7825C47.0768 49.7825 42.6977 54.1379 42.6977 59.5106C42.6977 64.8834 47.0768 69.2388 52.4786 69.2388Z" fill="#81D8F7"/>
</svg>
